<?xml version="1.0" encoding="UTF-8" standalone="no"?>
<!-- Created with Inkscape (http://www.inkscape.org/) -->

<svg
   width="19.049999mm"
   height="19.050001mm"
   viewBox="0 0 19.049999 19.050001"
   version="1.1"
   id="svg1"
   xmlns="http://www.w3.org/2000/svg"
   xmlns:svg="http://www.w3.org/2000/svg">
  <defs
     id="defs1" />
  <path
     d="M 13.811992,14.777127 H 5.2402134 c -0.4045796,0 -0.7329355,-0.328343 -0.7329355,-0.733606 V 6.1565365 c 0,-0.4045719 0.328335,-0.7478631 0.7329355,-0.7478631 h 0.6054151 v 0.392767 c 0,0.9455836 0.6691753,1.2198983 1.3383505,1.2157373 C 7.8531543,7.0026467 8.5223296,6.747024 8.5223296,5.7900661 V 5.4086473 h 2.0075254 v 0.392767 c 0,0.9455836 0.669176,1.2050151 1.338351,1.2157634 0.669175,0 1.338351,-0.2701537 1.338351,-1.2271116 V 5.4086473 h 0.605415 c 0.405248,0 0.732935,0.3432913 0.732935,0.7478761 v 7.8869716 c 0,0.40525 -0.327666,0.733606 -0.732935,0.733606 z m -1.943765,-1.33835 h 1.33835 v -1.338351 h -1.33835 z m 0,-2.007533 h 1.33835 v -1.33835 h -1.33835 z M 7.8531752,13.438777 H 9.1915258 V 12.100426 H 7.8531752 Z m -2.0075258,0 H 7.1839999 V 12.100426 H 5.8456494 Z m 0,-2.007533 h 1.3383505 v -1.33835 H 5.8456494 Z M 7.1913606,8.0853745 H 5.8456494 l -0.00334,1.3383506 h 1.3457113 z m 0.6618146,3.3458695 h 1.3383506 v -1.33835 H 7.8531752 Z M 9.2042397,8.0853745 h -1.340358 l -0.00334,1.3383506 h 1.3403581 z m 1.9928043,0 H 9.8720558 l -0.00334,1.3383506 h 1.3249882 z m 0.002,2.0075195 H 9.8607023 v 1.33835 h 1.3383507 z m 0,2.007532 H 9.8607023 v 1.338351 h 1.3383507 z m 2.010872,-4.0150515 h -1.345043 l -0.02005,1.3383506 h 1.36175 z M 11.868228,6.4962536 c -0.29222,0 -0.529631,-0.2621577 -0.529631,-0.5858047 V 5.3253224 c 0,-0.32366 0.23739,-0.5858047 0.529631,-0.5858047 0.292241,0 0.528962,0.2621447 0.528962,0.5858047 v 0.5851265 c 0,0.3236731 -0.236742,0.5858047 -0.528962,0.5858047 z m -4.6842268,-0.00874 c -0.292241,0 -0.5289617,-0.2608012 -0.5289617,-0.5824525 V 5.321918 c 0,-0.3216644 0.2367416,-0.5824525 0.5289617,-0.5824525 0.291551,0 0.5282926,0.2608142 0.5282926,0.5824525 v 0.5831437 c 0,0.3216644 -0.2367416,0.5824525 -0.5282926,0.5824519 z"
     fill="white"
     id="calendar" />
</svg>
