<?xml version="1.0" encoding="UTF-8" standalone="no"?>
<!-- Created with Inkscape (http://www.inkscape.org/) -->

<svg
   width="19.049999mm"
   height="19.050001mm"
   viewBox="0 0 19.049999 19.050001"
   version="1.1"
   id="svg1"
   xmlns="http://www.w3.org/2000/svg"
   xmlns:svg="http://www.w3.org/2000/svg">
  <defs
     id="defs1" />
  <path
     id="chat"
     fill="white"
     d="M 9.6371379 5.1826294 C 9.1710537 5.1826294 8.711211 5.223327 8.2656453 5.304069 C 7.0477118 5.5101553 6.0329042 6.0546253 5.1578247 6.8321411 C 4.5267736 7.4792501 4.1847575 8.2595263 4.1847575 9.0717977 C 4.1847575 9.899626 4.5267247 10.679921 5.1578247 11.326957 C 5.3871334 12.37692 3.9765015 13.574365 3.9765015 13.574365 C 3.9765015 13.574365 5.4935349 14.469533 7.3230672 13.553178 C 7.6655027 13.362939 7.9890671 13.121926 8.2656453 12.854513 C 8.711321 12.935098 9.1710415 12.975952 9.6371379 12.975952 C 11.032555 12.975952 12.354951 12.610023 13.361458 11.945524 C 13.882706 11.601206 14.297167 11.192801 14.592908 10.731128 C 14.92223 10.217017 15.089001 9.6638719 15.089001 9.0873006 C 15.089001 8.4947813 14.922267 7.9416384 14.592908 7.4274536 C 14.297204 6.9659888 13.88267 6.5579527 13.361458 6.2135742 C 12.354939 5.5490018 11.032433 5.1826294 9.6371379 5.1826294 z M 9.6578084 6.2078898 C 12.105853 6.2078898 14.090096 7.493896 14.090096 9.0800659 C 14.090096 10.666236 12.105853 11.952242 9.6578084 11.952242 C 9.0543882 11.952242 8.4793368 11.874096 7.95507 11.732617 L 7.5716309 12.103137 C 7.3633784 12.304277 7.1191439 12.486286 6.8646973 12.62972 C 6.5274434 12.795627 6.1947566 12.885754 5.8652751 12.913424 C 5.8838381 12.879581 5.9006386 12.845521 5.9190186 12.811621 C 6.3030165 12.10303 6.4069561 11.466117 6.2301107 10.901143 C 5.602237 10.405546 5.2255208 9.7713893 5.2255208 9.0800659 C 5.2255208 7.493896 7.2097633 6.2078898 9.6578084 6.2078898 z M 13.718026 7.9860758 L 13.718026 7.9865926 L 13.718026 7.9860758 z M 7.5783488 8.433077 C 7.225037 8.433077 6.9385946 8.71865 6.9385946 9.0707642 C 6.9385946 9.4228785 7.2250492 9.7079346 7.5783488 9.7079346 C 7.9316607 9.7079346 8.2175863 9.4228785 8.2175863 9.0707642 C 8.2175863 8.71865 7.9316484 8.433077 7.5783488 8.433077 z M 9.6376546 8.433077 C 9.2843428 8.433077 8.9979004 8.71865 8.9979004 9.0707642 C 8.9979004 9.4228785 9.284355 9.7079346 9.6376546 9.7079346 C 9.9909665 9.7079346 10.277409 9.4228785 10.277409 9.0707642 C 10.277409 8.71865 9.9909543 8.433077 9.6376546 8.433077 z M 11.69696 8.433077 C 11.343648 8.433077 11.057723 8.71865 11.057723 9.0707642 C 11.057723 9.4228785 11.343661 9.7079346 11.69696 9.7079346 C 12.050272 9.7079346 12.336715 9.4228785 12.336715 9.0707642 C 12.336715 8.71865 12.05026 8.433077 11.69696 8.433077 z " />
</svg>
