<?xml version="1.0" encoding="UTF-8" standalone="no"?>
<!-- Created with Inkscape (http://www.inkscape.org/) -->

<svg
   width="19.049999mm"
   height="19.050001mm"
   viewBox="0 0 19.049999 19.050001"
   version="1.1"
   id="svg1"
   xmlns="http://www.w3.org/2000/svg"
   xmlns:svg="http://www.w3.org/2000/svg">
  <defs
     id="defs1" />
  <path
     id="contacts"
     fill="white"
     d="M 9.5255168 5.2911499 C 8.8021324 5.2911499 8.225743 5.616005 7.8630859 6.1210734 C 7.5004289 6.6261419 7.3359863 7.2956615 7.3359863 8.0196655 C 7.3359863 8.9816398 7.7483361 9.8741335 8.3710653 10.429854 C 8.2367617 11.022336 7.7840336 11.400523 7.2734578 11.597742 C 6.9249896 11.731118 6.494865 11.938533 6.115389 12.24008 C 5.735913 12.541628 5.4015123 12.944922 5.2968343 13.464811 C 5.2664043 13.616425 5.3824923 13.757958 5.5371297 13.757817 L 13.513904 13.757817 C 13.668541 13.757958 13.784112 13.616425 13.753682 13.464811 C 13.64874 12.945013 13.31505 12.541624 12.935645 12.24008 C 12.556728 11.938925 12.125823 11.731144 11.777576 11.597742 L 11.775509 11.597742 C 11.265036 11.400337 10.811847 11.022076 10.677901 10.429854 C 11.300911 9.8741447 11.715047 8.9817568 11.715047 8.0196655 C 11.715047 7.2956053 11.550336 6.6261177 11.187431 6.1210734 C 10.824573 5.6160292 10.248901 5.2911499 9.5255168 5.2911499 z M 5.2911499 7.6739502 C 4.9345903 7.6739502 4.6294633 7.8437547 4.4472738 8.0976969 C 4.2650843 8.351639 4.1894084 8.6729984 4.1894084 9.009786 C 4.1894084 9.4084373 4.4054477 9.7290026 4.6446777 10.004041 C 4.6042907 10.203629 4.4551155 10.332143 4.2638224 10.406083 C 4.1031468 10.467823 3.9059198 10.562769 3.7248372 10.70684 C 3.5429748 10.851532 3.3695497 11.05302 3.3145264 11.325924 C 3.2811534 11.48917 3.4057703 11.642414 3.5723918 11.6427 L 5.4451457 11.6427 C 5.5064737 11.64267 5.5658527 11.621349 5.6130941 11.582239 C 5.6374391 11.561869 5.6567521 11.544073 5.6678711 11.535213 C 5.9767791 11.289362 6.3013747 11.130986 6.5820272 11.019482 C 6.7903947 10.938212 6.8090031 10.650813 6.613033 10.543026 C 6.5093878 10.485097 6.4096149 10.439455 6.3184774 10.404533 C 6.1270103 10.330149 5.9770344 10.204666 5.9376221 10.004041 C 6.1769471 9.7289179 6.3923747 9.4085267 6.3923747 9.009786 C 6.3923747 8.6730524 6.3186621 8.351662 6.1365763 8.0976969 C 5.9544906 7.8437317 5.6477071 7.6739502 5.2911499 7.6739502 z M 13.757817 7.6739502 C 13.401259 7.6739502 13.096025 7.8416647 12.91394 8.0956299 C 12.731854 8.3495951 12.656075 8.6709854 12.656075 9.0077189 C 12.656075 9.4065868 12.871874 9.7288993 13.111344 10.004041 C 13.070894 10.203432 12.921694 10.330575 12.730489 10.404533 C 12.639739 10.439383 12.538506 10.485414 12.435417 10.543026 C 12.242272 10.651514 12.261237 10.935189 12.466939 11.017415 C 12.747592 11.128919 13.073738 11.289363 13.382646 11.535213 C 13.393746 11.544013 13.410996 11.559782 13.435356 11.580172 C 13.482846 11.620412 13.543128 11.64258 13.605371 11.6427 L 15.476575 11.6427 C 15.643994 11.643653 15.770043 11.489953 15.736507 11.325924 C 15.681487 11.053019 15.508059 10.849981 15.326196 10.70529 C 15.144333 10.560599 14.946193 10.466258 14.785144 10.404533 C 14.592925 10.330243 14.443753 10.203292 14.404289 10.001973 C 14.643519 9.7269354 14.859558 9.4063701 14.859558 9.0077189 C 14.859558 8.6709314 14.785949 8.3495722 14.60376 8.0956299 C 14.42157 7.8416877 14.114376 7.6739502 13.757817 7.6739502 z " />
</svg>
