<svg width="34" height="28" viewBox="0 0 34 28" fill="none" xmlns="http://www.w3.org/2000/svg">
<path d="M21 20L25.2 20L25.2 24C25.2 26.2091 23.4092 28 21.2 28L4.00001 28C1.79087 28 1.22058e-05 26.2091 1.23024e-05 24L1.31766e-05 4C1.32732e-05 1.79086 1.79087 -1.02325e-06 4.00001 -9.26681e-07L21.2 -1.74846e-07C23.4092 -7.8281e-08 25.2 1.79086 25.2 4L25.2 8L21 8L21 6C21 4.89543 20.1046 4 19 4L6.20001 4C5.09544 4 4.20001 4.89543 4.20001 6L4.20001 22C4.20001 23.1046 5.09544 24 6.20001 24L19 24C20.1046 24 21 23.1046 21 22L21 20Z" fill="white"/>
<path d="M10.0919 16.3999L10.0919 12.1332L27.4319 12.1332L27.4319 8.3999L33.8919 14.2666L27.4319 19.5999L27.4319 16.3999L10.0919 16.3999Z" fill="white"/>
</svg>
