<?xml version="1.0" encoding="UTF-8" standalone="no"?>
<!-- Created with Inkscape (http://www.inkscape.org/) -->

<svg
   width="19.049999mm"
   height="19.050001mm"
   viewBox="0 0 19.049999 19.050001"
   version="1.1"
   id="svg1"
   xmlns="http://www.w3.org/2000/svg"
   xmlns:svg="http://www.w3.org/2000/svg">
  <defs
     id="defs1" />
  <path
     id="path1"
     style="fill:#ffffff;fill-opacity:1;stroke:none;stroke-width:0;stroke-linecap:round;stroke-linejoin:round;stroke-miterlimit:10;stroke-dasharray:none;stroke-opacity:1"
     d="m 5.1154495,5.2916681 c -0.4262171,0 -0.8048548,0.1980015 -1.0609171,0.5048774 C 3.9156707,5.9629659 3.9903437,6.229376 4.1687376,6.3536177 L 9.5250005,10.084138 14.881263,6.3536177 C 15.059201,6.2296901 15.133731,5.963789 14.995466,5.7975779 14.739714,5.4901291 14.361196,5.2916681 13.934549,5.2916681 Z M 4.0948411,7.499285 A 0.36010574,0.36010574 0 0 0 3.7119196,7.8584343 l 5.147e-4,4.8379497 c 0,0.782039 0.622843,1.444871 1.4035329,1.444871 h 8.8196168 c 0.780693,0 1.402497,-0.663635 1.402497,-1.444871 L 15.337564,7.8584343 A 0.35955497,0.35955497 0 0 0 14.772226,7.5638808 L 9.7906166,11.032917 c -0.00291,0.0012 -0.00591,0.0023 -0.00879,0.0036 -0.025215,0.01393 -0.051695,0.02559 -0.079064,0.03462 -0.028268,0.01451 -0.057726,0.02566 -0.088365,0.03411 -0.00262,0.0012 -0.00517,0.0025 -0.00775,0.0036 -0.027251,0.002 -0.054478,0.0014 -0.081647,-0.0015 -0.029827,0.0023 -0.059687,0.0014 -0.0894,-0.0021 -0.030639,-0.0085 -0.060603,-0.01961 -0.088883,-0.03411 -0.027367,-0.009 -0.053835,-0.02068 -0.079064,-0.03462 -0.00291,-0.0012 -0.00591,-0.0023 -0.00879,-0.0036 L 4.2777748,7.5633631 A 0.36010574,0.36010574 0 0 0 4.0948411,7.499285 Z" />
</svg>
