<?xml version="1.0" encoding="UTF-8" standalone="no"?>
<!-- Created with Inkscape (http://www.inkscape.org/) -->

<svg
   width="19.049999mm"
   height="19.050001mm"
   viewBox="0 0 19.049999 19.050001"
   version="1.1"
   id="svg1"
   xmlns="http://www.w3.org/2000/svg"
   xmlns:svg="http://www.w3.org/2000/svg">
  <defs
     id="defs1" />
  <path
     id="files"
     fill="white"
     d="m 6.1319241,3.6276856 c -0.9079012,0 -1.6329753,0.770675 -1.6329753,1.6820687 v 0.6340673 8.1700454 c 0,0.910789 0.7250741,1.68155 1.6329753,1.68155 H 12.92014 c 0.907091,0 1.632976,-0.770169 1.632976,-1.68155 V 7.3649252 C 14.553066,7.2263001 14.499223,7.092917 14.40222,6.9938868 L 11.255127,3.786849 C 11.155462,3.6851002 11.018249,3.6277352 10.875821,3.6276856 Z m 4.4658789,1.1131087 a 0.21051266,0.21051266 0 0 1 0.107487,0.057878 l 2.692341,2.6918279 a 0.23683465,0.23683465 0 0 1 -0.167432,0.404624 l -1.201476,5.192e-4 h -10e-4 c -0.911374,0 -1.681553,-0.7258215 -1.681553,-1.6334945 V 4.9475 a 0.21051266,0.21051266 0 0 1 0.251665,-0.2067057 z" />
</svg>
