<svg width="28" height="28" viewBox="0 0 28 28" fill="none" xmlns="http://www.w3.org/2000/svg">
<path fill-rule="evenodd" clip-rule="evenodd" d="M0 18.6667L3.11111 15.5556V12.4444L0 9.33333L3.11111 4.66667L6.22222 5.44444L10.1111 3.11111V0H17.8889V3.11111L20.2222 5.44444L24.8889 4.66667L28 9.33333L24.8889 12.4444V15.5556L28 18.6667L24.8889 23.3333L21 22.5556L17.8889 24.8889L17.1111 28H10.8889L10.1111 24.8889L7.77778 22.5556L3.11111 24.1111L0 18.6667ZM13.9998 19.0012C16.7612 19.0012 18.9998 16.7626 18.9998 14.0012C18.9998 11.2398 16.7612 9.00122 13.9998 9.00122C11.2384 9.00122 8.99979 11.2398 8.99979 14.0012C8.99979 16.7626 11.2384 19.0012 13.9998 19.0012Z" fill="white"/>
</svg>
