<?xml version="1.0" encoding="UTF-8" standalone="no"?>
<!-- Created with Inkscape (http://www.inkscape.org/) -->

<svg
   width="19.049999mm"
   height="19.050001mm"
   viewBox="0 0 19.049999 19.050001"
   version="1.1"
   id="svg1"
   xmlns="http://www.w3.org/2000/svg"
   xmlns:svg="http://www.w3.org/2000/svg">
  <defs
     id="defs1" />
  <path
     id="tasks"
     fill="white"
     d="m 6.1153875,3.9124212 c -0.9079012,0 -1.6329753,0.7711909 -1.6329753,1.6825846 v 0.6340707 8.1700455 c 0,0.910789 0.7250741,1.681034 1.6329753,1.681034 h 6.7882165 c 0.907091,0 1.632975,-0.769653 1.632975,-1.681034 V 7.6496608 c -5e-5,-0.1386252 -0.05389,-0.271489 -0.150895,-0.3705192 L 11.238591,4.0721038 C 11.138925,3.970355 11.001713,3.9124708 10.859284,3.9124212 Z m 5.2461915,4.8767074 a 0.52916502,0.52916502 0 0 1 0.374657,0.1539941 0.52916502,0.52916502 0 0 1 0,0.7482748 L 9.3555014,12.074199 a 0.52921794,0.52921794 0 0 1 -0.7498258,0 L 7.2832748,10.750247 a 0.52916502,0.52916502 0 0 1 0,-0.748275 0.52916502,0.52916502 0 0 1 0.7477588,0 l 0.9492953,0.949299 2.0081481,-2.0081483 a 0.52916502,0.52916502 0 0 1 0.373102,-0.1539941 z" />
</svg>
